<?xml version="1.0" encoding="UTF-8"?>
<svg width="288px" height="288px" viewBox="0 0 288 288" version="1.1" xmlns="http://www.w3.org/2000/svg" xmlns:xlink="http://www.w3.org/1999/xlink">
    <!-- Generator: Sketch 53.2 (72643) - https://sketchapp.com -->
    <title>Buttons/NoirID</title>
    <desc>Created with Sketch.</desc>
    <defs>
        <polygon id="path-1" points="143.9999 0 0 0 0 288 143.9999 288 287.9998 288 287.9998 0"></polygon>
    </defs>
    <g id="Buttons/NoirID" stroke="none" stroke-width="1" fill="none" fill-rule="evenodd">
        <g id="NoirID">
            <g id="Group-3">
                <mask id="mask-2" fill="white">
                    <use xlink:href="#path-1"></use>
                </mask>
                <g id="Clip-2"></g>
                <path d="M287.9998,144 C287.9998,223.529 223.5288,288 143.9998,288 C64.4708,288 -0.0002,223.529 -0.0002,144 C-0.0002,64.471 64.4708,0 143.9998,0 C223.5288,0 287.9998,64.471 287.9998,144" id="IDCircle" fill="#262626" mask="url(#mask-2)"></path>
            </g>
            <path d="M227.0446,142.3294 L210.9996,105.7504 L200.8126,108.5314 L172.1876,116.1874 L168.8426,117.0884 L73.7336,154.6744 L70.6876,156.8904 L37.4706,175.3294 L37.2936,176.0944 L149.0646,287.8714 C208.7126,285.8064 259.1366,247.4954 278.9696,194.2544 L227.0446,142.3294 Z" id="IDShaddow" fill="#161616"></path>
            <path d="M203.079,107.7891 C203.505,108.0011 212.97,112.8701 216.92,127.5921 C220.869,142.3141 215.112,151.2661 214.85,151.6641 L214.854,151.6811 L214.835,151.6861 C214.834,151.6881 214.825,151.7021 214.825,151.7021 L214.777,151.7021 L183.613,160.0631 L183.608,160.0451 C183.871,159.6481 189.628,150.6951 185.679,135.9741 C181.728,121.2511 172.264,116.3831 171.838,116.1701 L171.83,116.1411 L203.071,107.7591 L203.079,107.7891 Z M205.3319,107.1528 L216.8649,104.0578 C228.4139,100.9598 240.3969,107.8728 243.4959,119.4218 L244.0159,121.3608 C247.1139,132.9088 240.1999,144.8928 228.6509,147.9908 L217.0879,151.0938 C217.0889,151.0918 217.0959,151.0808 217.0969,151.0798 L217.1159,151.0738 L217.1109,151.0568 C217.3729,150.6588 223.1309,141.7068 219.1809,126.9858 C215.2309,112.2628 205.7669,107.3948 205.3399,107.1818 L205.3149,107.1558 L205.3319,107.1528 Z M128.8553,174.7495 C125.6393,175.6045 123.1443,175.5565 123.1443,175.5565 L80.4733,175.9695 L78.3753,175.9895 C79.0523,174.7865 80.9413,170.6895 79.2853,164.5155 C77.6273,158.3395 73.9413,155.7395 72.7533,155.0375 L74.5803,154.0045 L111.5913,133.0795 C114.5783,131.3975 116.9733,130.8575 116.9733,130.8575 L169.4243,116.7865 L169.4323,116.8155 C169.8583,117.0275 179.3233,121.8955 183.2723,136.6165 C187.2213,151.3375 181.4643,160.2895 181.2023,160.6865 L181.2073,160.7045 L181.1873,160.7095 C181.1863,160.7105 181.1773,160.7245 181.1773,160.7245 L181.1293,160.7255 L128.8553,174.7495 Z M70.6786,156.711 C70.6786,156.711 75.0086,158.729 76.7436,165.198 C78.4796,171.668 75.7406,175.582 75.7406,175.582 L55.6366,175.918 L37.5186,176.222 C37.3006,176.218 37.1006,176.075 37.0406,175.854 C36.9796,175.623 37.0896,175.386 37.2936,175.28 L53.1046,166.483 L70.6786,156.711 Z" id="IDPencil" fill="#F4F4F4"></path>
            <path d="M217.0829,151.0947 L217.0379,151.0947" id="Fill-10" fill="#F4F4F4"></path>
        </g>
    </g>
</svg>