<?xml version="1.0" encoding="UTF-8"?>
<svg width="288px" height="288px" viewBox="0 0 288 288" version="1.1" xmlns="http://www.w3.org/2000/svg" xmlns:xlink="http://www.w3.org/1999/xlink">
    <!-- Generator: Sketch 51.1 (57501) - http://www.bohemiancoding.com/sketch -->
    <title>Group 15</title>
    <desc>Created with Sketch.</desc>
    <defs>
        <polygon id="path-1" points="143.99995 0 0 0 0 288 143.99995 288 287.9999 288 287.9999 0"></polygon>
    </defs>
    <g id="Page-1" stroke="none" stroke-width="1" fill="none" fill-rule="evenodd">
        <g id="Group-15">
            <path d="M287.9999,144 C287.9999,223.529 223.5289,288 143.9999,288 C64.4709,288 -0.0001,223.529 -0.0001,144 C-0.0001,64.471 64.4709,0 143.9999,0 C223.5289,0 287.9999,64.471 287.9999,144" id="Fill-1" fill="#F4F4F4"></path>
            <path d="M287.9999,144 C287.9999,223.529 223.5289,288 143.9999,288 C64.4709,288 -0.0001,223.529 -0.0001,144 C-0.0001,64.471 64.4709,0 143.9999,0 C223.5289,0 287.9999,64.471 287.9999,144" id="Path" fill="#F4F4F4"></path>
            <g id="Page-1-Copy-6">
                <g id="Group-3">
                    <mask id="mask-2" fill="white">
                        <use xlink:href="#path-1"></use>
                    </mask>
                    <g id="Clip-2"></g>
                </g>
                <path d="M278.9696,194.2549 L227.0446,142.3299 L210.9996,105.7499 L200.8126,108.5309 L172.1876,116.1879 L168.8426,117.0889 L73.7336,154.6749 L70.6876,156.8909 L37.4706,175.3289 L37.2936,176.0939 L149.0646,287.8719 C208.7126,285.8069 259.1366,247.4949 278.9696,194.2549" id="Fill-4" fill="#BFBFBF"></path>
                <path d="M171.83,116.1421 C172.264,116.3831 181.728,121.2521 185.679,135.9741 C189.628,150.6951 183.871,159.6471 183.608,160.0451 L214.777,151.7021 C215.112,151.2661 220.869,142.3131 216.92,127.5921 C212.97,112.8701 203.505,108.0021 203.079,107.7891 L171.83,116.1421 Z" id="Fill-6" fill="#BFBFBF"></path>
                <path d="M205.3319,107.1533 L205.3149,107.1563 L205.3399,107.1823 C205.7669,107.3943 215.2309,112.2623 219.1809,126.9853 C223.1309,141.7073 217.3729,150.6593 217.1109,151.0563 L217.1159,151.0743 L217.0969,151.0803 C217.0959,151.0813 217.0889,151.0913 217.0879,151.0933 L228.6509,147.9913 C240.1999,144.8923 247.1139,132.9093 244.0159,121.3603 L243.4959,119.4223 C240.3969,107.8733 228.4139,100.9593 216.8649,104.0573 L205.3319,107.1533 Z" id="Fill-8" fill="#BFBFBF"></path>
                <path d="M217.0829,151.0947 L217.0379,151.0957" id="Fill-10" fill="#262626"></path>
                <path d="M128.8553,174.749 L181.1293,160.725 L181.1773,160.725 C181.1773,160.725 181.1863,160.711 181.1873,160.709 L181.2073,160.704 L181.2023,160.686 C181.4643,160.289 187.2213,151.338 183.2723,136.616 C179.3233,121.895 169.8583,117.028 169.4323,116.815 L169.4243,116.786 L116.9733,130.857 C116.9733,130.857 114.5783,131.398 111.5913,133.079 L74.5803,154.004 L72.7533,155.037 C73.9413,155.739 77.6273,158.34 79.2853,164.515 C80.9413,170.689 79.0523,174.787 78.3753,175.989 L80.4723,175.969 L123.1443,175.557 C123.1443,175.557 125.6393,175.604 128.8553,174.749" id="Fill-12" fill="#BFBFBF"></path>
                <path d="M70.6786,156.7109 L53.1046,166.4829 L37.2936,175.2789 C37.0896,175.3859 36.9796,175.6229 37.0406,175.8549 C37.1006,176.0749 37.2996,176.2179 37.5186,176.2219 L55.6356,175.9179 L75.7406,175.5809 C75.7406,175.5809 78.4796,171.6669 76.7436,165.1979 C75.0086,158.7289 70.6786,156.7109 70.6786,156.7109" id="Fill-14" fill="#BFBFBF"></path>
            </g>
        </g>
    </g>
</svg>