<?xml version="1.0" encoding="UTF-8"?>
<svg width="576px" height="576px" viewBox="0 0 576 576" version="1.1" xmlns="http://www.w3.org/2000/svg" xmlns:xlink="http://www.w3.org/1999/xlink">
    <!-- Generator: Sketch 53.2 (72643) - https://sketchapp.com -->
    <title>NoirID Copy</title>
    <desc>Created with Sketch.</desc>
    <defs>
        <polygon id="path-1" points="287.9998 0 0 0 0 576 287.9998 576 575.9996 576 575.9996 0"></polygon>
    </defs>
    <g id="Development" stroke="none" stroke-width="1" fill="none" fill-rule="evenodd">
        <g id="penstudioblack-copy">
            <g id="NoirID-Copy">
                <g id="Group-3">
                    <mask id="mask-2" fill="white">
                        <use xlink:href="#path-1"></use>
                    </mask>
                    <g id="Clip-2"></g>
                    <path d="M575.9996,288 C575.9996,447.058 447.0576,576 287.9996,576 C128.9416,576 -0.0004,447.058 -0.0004,288 C-0.0004,128.942 128.9416,0 287.9996,0 C447.0576,0 575.9996,128.942 575.9996,288" id="IDCircle" fill="#F4F4F4" mask="url(#mask-2)"></path>
                </g>
                <path d="M440.497729,285.753221 L557.09742,390.740054 C518.507236,491.749977 424.696047,565.406175 312.577483,574.883116 L87.8413717,350.185971 C86.8855396,349.230305 87.0279331,346.921877 88.2685523,343.260689 L141.3752,313.7808 L147.4672,309.3488 L440.497729,285.753221 Z" id="Path" fill="#BFBFBF"></path>
                <path d="M434.1658,302.1894 L434.0758,302.1894" id="Fill-10" fill="#F4F4F4"></path>
            </g>
        </g>
    </g>
</svg>